<svg width="50" height="50" viewBox="0 0 50 50" fill="none" xmlns="http://www.w3.org/2000/svg">
<mask id="mask0_1_29" style="mask-type:luminance" maskUnits="userSpaceOnUse" x="0" y="0" width="50" height="50">
<path d="M0 24.6719C0 11.046 11.046 0 24.6719 0V0C38.2978 0 49.3438 11.046 49.3438 24.6719V24.6719C49.3438 38.2978 38.2978 49.3438 24.6719 49.3438V49.3438C11.046 49.3438 0 38.2978 0 24.6719V24.6719Z" fill="white"/>
</mask>
<g mask="url(#mask0_1_29)">
<path d="M0 24.6719C0 11.046 11.046 0 24.6719 0V0C38.2978 0 49.3438 11.046 49.3438 24.6719V24.6719C49.3438 38.2978 38.2978 49.3438 24.6719 49.3438V49.3438C11.046 49.3438 0 38.2978 0 24.6719V24.6719Z" fill="white"/>
<path d="M0 24.6719C0 11.046 11.046 0 24.6719 0V0C38.2978 0 49.3438 11.046 49.3438 24.6719V24.6719C49.3438 38.2978 38.2978 49.3438 24.6719 49.3438V49.3438C11.046 49.3438 0 38.2978 0 24.6719V24.6719Z" fill="#F6C010"/>
<path d="M5.19318 17.495V14.1818H22.6009V17.495H15.8572V36H11.9368V17.495H5.19318ZM28.8757 14.1818L34.554 31.3551H34.7777L40.4453 14.1818H44.7919L37.1001 36H32.2209L24.5398 14.1818H28.8757Z" fill="black"/>
</g>
</svg>
